<?xml version="1.0" encoding="utf-8"?>
<!-- Generator: Adobe Illustrator 21.1.0, SVG Export Plug-In . SVG Version: 6.00 Build 0)  -->
<svg version="1.1" id="Layer_1" xmlns="http://www.w3.org/2000/svg" xmlns:xlink="http://www.w3.org/1999/xlink" x="0px" y="0px"
	 viewBox="0 0 28 32" style="enable-background:new 0 0 28 32;" xml:space="preserve">
<style type="text/css">
	.st0{fill:#FFFFFF;}
</style>
<path class="st0" d="M24,10c0-5.5-4.5-10-10-10S4,4.5,4,10c0,3,1.4,5.8,3.5,7.6C3,19.9,0,24.6,0,30c0,1.1,0.9,2,2,2s2-0.9,2-2
	c0-5.5,4.5-10,10-10s10,4.5,10,10c0,1.1,0.9,2,2,2s2-0.9,2-2c0-5.4-3-10-7.5-12.4C22.6,15.7,24,13,24,10z M14,16c-3.3,0-6-2.7-6-6
	s2.7-6,6-6s6,2.7,6,6S17.3,16,14,16z"/>
</svg>
